# xmcd
#
# Track frame offsets:
# 150
# 17448
# 29578
# 41208
# 53240
# 65373
# 76680
# 89113
# 102933
# 113483
# 126718
# 138238
# 153748
# 171528
# 187025
# 198970
# 214728
# 231010
#
# Disc length: 3245 seconds
#
#
# Revision: 2
# Processed by: cddbd v1.5.1PL0 Copyright (c) Steve Scherf et al.
# Submitted via: FreeRIP 2.92 
#
DISCID=030cab12
DTITLE=Smokey Robinson and The Miracles - Whatever Makes You Happy - More of the Best (1961 - 1971)
DYEAR=1993
DGENRE=Soul
TTITLE0=Money
TTITLE1=Won't You Take Me Back
TTITLE2=Whatever Makes You Happy
TTITLE3=Mighty Good Lovin' (Live)
TTITLE4=I Need Change
TTITLE5=From Head To Toe
TTITLE6=More More More Of Your Love
TTITLE7=Sweet For You Baby
TTITLE8=Beauty Is Only Skin Deep
TTITLE9=Don't Think It's Me
TTITLE10=Dancing's Alright
TTITLE11=You Only Build Me Up To Tear Me Down
TTITLE12=I'll Take You Any Way That You Come
TTITLE13=My World Is Empty Without You
TTITLE14=Dreams Dreams
TTITLE15=Backfire
TTITLE16=Flower Girl
TTITLE17=Faces
EXTD=p 1993 Motown\nc 1993 Rhino
EXTT0=
EXTT1=
EXTT2=
EXTT3=
EXTT4=
EXTT5=
EXTT6=
EXTT7=
EXTT8=
EXTT9=
EXTT10=
EXTT11=
EXTT12=
EXTT13=
EXTT14=
EXTT15=
EXTT16=
EXTT17=
PLAYORDER=
